<?xml version="1.0" encoding="UTF-8"?>
<svg id="Layer_2" data-name="Layer 2" xmlns="http://www.w3.org/2000/svg" viewBox="0 0 622.49 222.15">
  <defs>
    <style>
      .cls-1 {
        fill: #7c7c7c;
      }

      .cls-2 {
        fill: #7f54b2;
      }
    </style>
  </defs>
  <g id="Layer_1-2" data-name="Layer 1">
    <path class="cls-1" d="M128.71,68.87c.78-3.65,2.03-6.5,3.75-8.56,1.52-1.86,4.36-2.75,8.51-2.68h85.21c2.55-.06,4.56,.16,6.03,.67,.17,.06,.34,.13,.49,.22,1.15,.66,1.95,1.51,2.39,2.55,.38,.93,.53,1.95,.42,3.06-.01,.12-.03,.24-.05,.35-.26,1.31-.52,2.49-.78,3.52l-4.29,18.48c-.34,1.45-1.62,2.47-3.11,2.47h-20.18c-2.06,0-3.58-1.92-3.11-3.92l2-8.49c.47-2-1.05-3.92-3.11-3.92h-54.77c-1.44,0-2.71,.97-3.08,2.36l-3.04,11.24c-.55,2.03,.98,4.03,3.08,4.03h16.28c2.08,0,3.61,1.97,3.09,3.98l-15.45,60.32c-.84,3.5-1.96,6.09-3.36,7.79-.12,.14-.25,.28-.39,.4-1.77,1.47-4.55,2.2-8.35,2.2h-21.58c-3.21,0-5.69-1.1-7.45-3.29-1.56-1.92-2.09-4.47-1.6-7.66,.02-.13,.05-.25,.08-.37l12.04-44.44c.38-1.39,1.64-2.36,3.08-2.36h11.41c2.1,0,3.63,2,3.08,4.03l-9.47,34.92c-.55,2.03,.98,4.03,3.08,4.03h0c1.45,0,2.72-.98,3.09-2.38l9.98-37.92c.53-2.02-.99-4-3.09-4h-16.29c-2.09,0-3.62-1.98-3.09-4l8.53-32.62Z"/>
    <path class="cls-1" d="M164,165.23h-11.28c-2.21,0-3.83-2.07-3.31-4.21l16.44-67.66c.52-2.14-1.1-4.21-3.31-4.21h-15.27c-2.2,0-3.83-2.06-3.31-4.2l1.96-8.13c.37-1.53,1.74-2.61,3.31-2.61h51.73c2.22,0,3.84,2.08,3.3,4.23l-2.04,8.13c-.38,1.51-1.74,2.58-3.3,2.58h-10.94c-1.57,0-2.93,1.07-3.31,2.59l-17.37,70.89c-.37,1.52-1.74,2.59-3.31,2.59Z"/>
    <path class="cls-1" d="M227.86,93.74l-17.45,69.19c-.3,1.18-1.36,2.01-2.58,2.01h-27c-5.23,0-8.43-1.2-9.57-3.6-1.11-2.36-1.11-5.91,0-10.64l14.34-58.25c.29-1.19,1.36-2.02,2.58-2.02h13.44c1.73,0,3,1.63,2.58,3.31l-13.41,52.73c-.43,1.68,.84,3.31,2.58,3.31h0c1.23,0,2.3-.85,2.59-2.05l13.06-55.27c.28-1.2,1.35-2.05,2.59-2.05h13.68c1.73,0,3,1.63,2.58,3.31Z"/>
    <path class="cls-1" d="M245.71,165.04h-29.52c-1.61,0-2.8-1.5-2.43-3.07l24.2-102.47c.27-1.13,1.27-1.92,2.43-1.92h30.7c2.6,0,4.61,.35,6.03,1.06,1.28,.61,2.08,1.45,2.38,2.53,.51,.98,.66,2.21,.46,3.7-.2,1.15-.54,2.45-1.03,3.89-.02,.07-.05,.15-.06,.23l-19.99,86.68c-.9,3.69-2.62,6.24-5.15,7.64-.08,.04-.16,.08-.24,.12-2.63,1.18-5.22,1.72-7.78,1.62Zm7.41-90.34l-16.78,72.39c-.36,1.56,.82,3.06,2.43,3.06h.09c1.16,0,2.17-.8,2.43-1.93l16.69-72.39c.36-1.56-.83-3.05-2.43-3.05h0c-1.16,0-2.17,.8-2.43,1.93Z"/>
    <path class="cls-1" d="M260.05,158.79l21.93-97.04c.53-2.35,2.62-4.02,5.04-4.02h8.4c3.31,0,5.77,3.08,5.03,6.31l-22.12,97.04c-.54,2.35-2.62,4.01-5.03,4.01h-8.21c-3.31,0-5.76-3.07-5.04-6.3Z"/>
    <path class="cls-1" d="M289.06,165.04c-3.04,.1-5.18-.79-6.43-2.68-1.35-1.89-1.69-4.17-1.01-6.84l20.62-86.7c.81-3.07,2.14-5.69,4-7.85,1.96-2.19,4.58-3.33,7.85-3.39h21.68c3.14,.07,5.62,1.2,7.45,3.39,1.86,2.26,2.28,5.18,1.27,8.76l-19.51,83.71c-.95,3.85-2.35,6.82-4.2,8.91-1.65,1.89-4.34,2.79-8.05,2.68h-23.65Zm30.75-90.61l-16.79,72.68c-.33,1.42,.75,2.78,2.21,2.78h0c1.06,0,1.97-.73,2.21-1.76l16.98-72.68c.33-1.43-.75-2.79-2.21-2.79h-.19c-1.06,0-1.98,.73-2.21,1.76Z"/>
    <path class="cls-2" d="M390.87,61.39l-19.94,84.59c-.46,1.95,1.02,3.82,3.02,3.82h.01c1.44,0,2.68-.99,3.02-2.38l20.9-87.45c.33-1.4,1.58-2.38,3.02-2.38h11.6c2,0,3.48,1.87,3.02,3.82l-24.06,101.15c-.33,1.4-1.58,2.39-3.02,2.39h-50.98c-4.22,0-7.21-1-8.96-2.99-1.76-2.06-2.01-6.06-.76-12l21.22-89.98c.33-1.4,1.58-2.39,3.02-2.39h11.42c2,0,3.47,1.86,3.02,3.8l-19.62,84.61c-.45,1.95,1.03,3.8,3.02,3.8h0c1.45,0,2.7-1,3.03-2.41l19.88-87.39c.32-1.41,1.58-2.41,3.03-2.41h12.09c2,0,3.48,1.87,3.02,3.82Z"/>
    <path class="cls-2" d="M393.59,162.16l22.27-93.91c.01-.06,.03-.11,.05-.17,1.01-3.23,2.21-5.76,3.62-7.56,1.42-1.76,4.29-2.63,8.61-2.63h20.21c2.6,0,4.61,.19,6.03,.56,1.49,.38,2.6,1.02,3.32,1.91,.09,.11,.16,.23,.23,.35,.59,1.15,.85,2.71,.76,4.68,0,.07,0,.13-.01,.19-.21,1.88-.76,4.38-1.66,7.5l-20.82,90.25c-.24,1.03-1.16,1.77-2.22,1.77h-14.41c-1.48,0-2.57-1.4-2.21-2.84l13.01-51.39c.36-1.44-.72-2.84-2.21-2.84h-.5c-1.05,0-1.96,.72-2.21,1.74l-13.13,53.58c-.25,1.03-1.17,1.74-2.23,1.74l-14.28-.11c-1.46-.01-2.54-1.38-2.2-2.8Zm39.1-73.94h0c1.05,0,1.96-.71,2.21-1.73l2.62-10.59c.36-1.44-.73-2.83-2.21-2.83h-.32c-1.07,0-2,.75-2.23,1.79l-2.3,10.59c-.31,1.42,.77,2.76,2.23,2.76Z"/>
    <path class="cls-2" d="M439.62,155.77l21.16-88.69c.01-.06,.03-.11,.05-.17,.48-1.56,.98-2.88,1.49-3.96,.04-.08,.07-.16,.09-.24,.37-1.12,.95-2.01,1.73-2.66,.78-.81,1.91-1.32,3.39-1.52,1.35-.3,3.22-.51,5.62-.61h19.4c4.76,0,8.02,1.05,9.78,3.14,1.62,1.99,1.87,5.22,.76,9.67l-3.85,15.66c-.27,1.1-1.25,1.87-2.38,1.87h-13.68c-1.58,0-2.74-1.47-2.39-3l2.11-9.14c.35-1.54-.81-3-2.39-3h0c-1.13,0-2.12,.78-2.38,1.88l-17.36,72.07c-.37,1.54,.8,3.03,2.38,3.03h0c1.12,0,2.1-.76,2.37-1.84l1.53-5.94c.28-1.08,1.26-1.84,2.37-1.84h13.73c1.6,0,2.77,1.51,2.38,3.06l-3.17,12.38c-.84,3.44-1.96,5.86-3.34,7.24-1.49,1.32-3.93,1.92-7.34,1.82h-22.18c-2.53,.1-4.47,.1-5.82,0-1.72-.2-2.92-.61-3.6-1.22-.71-.68-1.06-1.62-1.06-2.84-.07-1.28,.13-3.01,.61-5.17Z"/>
    <path class="cls-2" d="M467.82,138.15l11.9-47.98c.11-.44,.51-.75,.96-.75h16.83c.64,0,1.11,.59,.97,1.21l-1.65,8.47c-.24,1.07,1.18,1.69,1.79,.77l14.28-41.7c.18-.28,.49-.44,.83-.44h16.05c.81,0,1.28,.92,.8,1.58l-24.94,52.41c-.17,.23-.23,.53-.16,.81l1.96,51.07c.15,.62-.32,1.22-.96,1.22h-16.68c-.49,0-.91-.36-.98-.85l3.91-43.86c-.15-1.08-1.69-1.15-1.95-.09l-4.44,18.6c-.11,.45-.51,.76-.96,.76h-16.58c-.65,0-1.12-.61-.96-1.24Z"/>
    <polygon class="cls-1" points="75.29 222.15 0 132.76 11.88 89.25 134.39 0 116.42 58.51 46.78 111.08 90.44 163.05 75.29 222.15"/>
    <polygon class="cls-2" points="558.39 8.89 622.49 91.21 614.27 131.34 503.74 213.79 517.3 162.84 588.52 110.93 544.69 60.8 558.39 8.89"/>
  </g>
</svg>